# Blender v2.80 (sub 75) OBJ File: ''
# www.blender.org
mtllib digibord.mtl
o Cube
v 4.500000 5.534883 -0.036995
v 4.500000 -0.035596 -0.036995
v 4.500000 5.534883 0.036995
v 4.500000 -0.035596 0.036995
v -4.500000 5.534883 -0.036995
v -4.500000 -0.035596 -0.036995
v -4.500000 5.534883 0.036995
v -4.500000 -0.035596 0.036995
vt 0.375000 0.000000
vt 0.625000 0.000000
vt 0.625000 0.250000
vt 0.375000 0.250000
vt 0.375000 0.250000
vt 0.625000 0.250000
vt 0.625000 0.500000
vt 0.375000 0.500000
vt 0.625000 0.750000
vt 0.375000 0.750000
vt 0.625000 0.750000
vt 0.625000 1.000000
vt 0.375000 1.000000
vt 0.125000 0.500000
vt 0.375000 0.500000
vt 0.375000 0.750000
vt 0.125000 0.750000
vt 0.625000 0.500000
vt 0.875000 0.500000
vt 0.875000 0.750000
vn 0.0000 1.0000 0.0000
vn 0.0000 0.0000 1.0000
vn -1.0000 0.0000 0.0000
vn 0.0000 -1.0000 0.0000
vn 1.0000 0.0000 0.0000
vn 0.0000 0.0000 -1.0000
usemtl white
s off
f 1/1/1 5/2/1 7/3/1 3/4/1
f 4/5/2 3/6/2 7/7/2 8/8/2
f 8/8/3 7/7/3 5/9/3 6/10/3
f 6/10/4 2/11/4 4/12/4 8/13/4
f 2/14/5 1/15/5 3/16/5 4/17/5
f 6/18/6 5/19/6 1/20/6 2/11/6
o Cube.001
v -4.500000 0.037228 0.384119
v -4.500000 -0.024905 0.384119
v -4.500000 0.037228 -0.031233
v -4.500000 -0.024905 -0.031233
v 4.500000 0.037228 0.384119
v 4.500000 -0.024905 0.384119
v 4.500000 0.037228 -0.031233
v 4.500000 -0.024905 -0.031233
vt 0.375000 0.000000
vt 0.375000 0.250000
vt 0.625000 0.250000
vt 0.625000 0.000000
vt 0.375000 0.500000
vt 0.625000 0.500000
vt 0.375000 0.750000
vt 0.625000 0.750000
vt 0.375000 1.000000
vt 0.625000 1.000000
vt 0.125000 0.500000
vt 0.125000 0.750000
vt 0.875000 0.750000
vt 0.875000 0.500000
vn -1.0000 0.0000 0.0000
vn 0.0000 0.0000 -1.0000
vn 1.0000 0.0000 0.0000
vn 0.0000 0.0000 1.0000
vn 0.0000 1.0000 0.0000
vn 0.0000 -1.0000 0.0000
usemtl grey.002
s off
f 9/21/7 11/22/7 12/23/7 10/24/7
f 11/22/8 15/25/8 16/26/8 12/23/8
f 15/25/9 13/27/9 14/28/9 16/26/9
f 13/27/10 9/29/10 10/30/10 14/28/10
f 11/31/11 9/32/11 13/27/11 15/25/11
f 16/26/12 14/28/12 10/33/12 12/34/12
o Cube.002
v -4.500595 5.546708 0.088328
v -4.500595 5.484575 0.088328
v -4.500595 5.546708 0.045178
v -4.500595 5.484575 0.045178
v 4.499405 5.546708 0.088328
v 4.499405 5.484575 0.088328
v 4.499405 5.546708 0.045178
v 4.499405 5.484575 0.045178
vt 0.375000 0.000000
vt 0.375000 0.250000
vt 0.625000 0.250000
vt 0.625000 0.000000
vt 0.375000 0.500000
vt 0.625000 0.500000
vt 0.375000 0.750000
vt 0.625000 0.750000
vt 0.375000 1.000000
vt 0.625000 1.000000
vt 0.125000 0.500000
vt 0.125000 0.750000
vt 0.875000 0.750000
vt 0.875000 0.500000
vn -1.0000 0.0000 0.0000
vn 0.0000 0.0000 -1.0000
vn 1.0000 0.0000 0.0000
vn 0.0000 0.0000 1.0000
vn 0.0000 1.0000 0.0000
vn 0.0000 -1.0000 0.0000
usemtl grey.002
s off
f 17/35/13 19/36/13 20/37/13 18/38/13
f 19/36/14 23/39/14 24/40/14 20/37/14
f 23/39/15 21/41/15 22/42/15 24/40/15
f 21/41/16 17/43/16 18/44/16 22/42/16
f 19/45/17 17/46/17 21/41/17 23/39/17
f 24/40/18 22/42/18 18/47/18 20/48/18
o Cube.003
v -4.430250 5.523050 0.092194
v -4.502866 5.523050 0.092194
v -4.430250 5.523050 0.041763
v -4.502866 5.523050 0.041763
v -4.430250 -0.033105 0.092194
v -4.502866 -0.033105 0.092194
v -4.430250 -0.033105 0.041763
v -4.502866 -0.033105 0.041763
vt 0.375000 0.000000
vt 0.375000 0.250000
vt 0.625000 0.250000
vt 0.625000 0.000000
vt 0.375000 0.500000
vt 0.625000 0.500000
vt 0.375000 0.750000
vt 0.625000 0.750000
vt 0.375000 1.000000
vt 0.625000 1.000000
vt 0.125000 0.500000
vt 0.125000 0.750000
vt 0.875000 0.750000
vt 0.875000 0.500000
vn 0.0000 1.0000 0.0000
vn 0.0000 0.0000 -1.0000
vn 0.0000 -1.0000 0.0000
vn 0.0000 0.0000 1.0000
vn 1.0000 0.0000 0.0000
vn -1.0000 0.0000 0.0000
usemtl grey.002
s off
f 25/49/19 27/50/19 28/51/19 26/52/19
f 27/50/20 31/53/20 32/54/20 28/51/20
f 31/53/21 29/55/21 30/56/21 32/54/21
f 29/55/22 25/57/22 26/58/22 30/56/22
f 27/59/23 25/60/23 29/55/23 31/53/23
f 32/54/24 30/56/24 26/61/24 28/62/24
o Cube.004
v 4.501478 5.541018 0.092194
v 4.428862 5.541018 0.092194
v 4.501478 5.541018 0.041763
v 4.428862 5.541018 0.041763
v 4.501478 -0.015136 0.092194
v 4.428862 -0.015136 0.092194
v 4.501478 -0.015136 0.041763
v 4.428862 -0.015136 0.041763
vt 0.375000 0.000000
vt 0.375000 0.250000
vt 0.625000 0.250000
vt 0.625000 0.000000
vt 0.375000 0.500000
vt 0.625000 0.500000
vt 0.375000 0.750000
vt 0.625000 0.750000
vt 0.375000 1.000000
vt 0.625000 1.000000
vt 0.125000 0.500000
vt 0.125000 0.750000
vt 0.875000 0.750000
vt 0.875000 0.500000
vn 0.0000 1.0000 0.0000
vn 0.0000 0.0000 -1.0000
vn 0.0000 -1.0000 0.0000
vn 0.0000 0.0000 1.0000
vn 1.0000 0.0000 0.0000
vn -1.0000 0.0000 0.0000
usemtl grey.002
s off
f 33/63/25 35/64/25 36/65/25 34/66/25
f 35/64/26 39/67/26 40/68/26 36/65/26
f 39/67/27 37/69/27 38/70/27 40/68/27
f 37/69/28 33/71/28 34/72/28 38/70/28
f 35/73/29 33/74/29 37/69/29 39/67/29
f 40/68/30 38/70/30 34/75/30 36/76/30
